<svg xmlns="http://www.w3.org/2000/svg" viewBox="0 0 199.32 141.17" version="1.0"><defs><linearGradient id="d" y2="47.562" gradientUnits="userSpaceOnUse" x2="370.69" gradientTransform="matrix(.54418 0 0 .54262 205.14 32.213)" y1="118.41" x1="340.97"><stop style="stop-color:#000;stop-opacity:0" offset="0"/><stop style="stop-color:#55594c" offset="1"/></linearGradient><linearGradient id="g" y2="268.78" gradientUnits="userSpaceOnUse" x2="126.94" gradientTransform="matrix(.54418 0 0 .54262 205.14 32.213)" y1="281.05" x1="126.94"><stop style="stop-color:#2e3436" offset="0"/><stop style="stop-color:#2e3436;stop-opacity:0" offset="1"/></linearGradient><linearGradient id="f" y2="176.09" gradientUnits="userSpaceOnUse" x2="29.662" gradientTransform="matrix(.54418 0 0 .54262 205.14 32.213)" y1="176.09" x1="8.1"><stop style="stop-color:#2e3436" offset="0"/><stop style="stop-color:#2e3436;stop-opacity:0" offset="1"/></linearGradient><linearGradient id="b" y2="57.68" gradientUnits="userSpaceOnUse" x2="352.47" gradientTransform="matrix(.54418 0 0 .54262 201.33 44.151)" y1="21.844" x1="337.25"><stop style="stop-color:#fff" offset="0"/><stop style="stop-color:#fff;stop-opacity:0" offset="1"/></linearGradient><radialGradient id="a" gradientUnits="userSpaceOnUse" cy="249" cx="200" gradientTransform="matrix(.56523 0 0 .14858 200.12 133.59)" r="168"><stop style="stop-color:#000" offset="0"/><stop style="stop-color:#000;stop-opacity:0" offset="1"/></radialGradient><radialGradient id="e" gradientUnits="userSpaceOnUse" cy="143.22" cx="182.34" gradientTransform="matrix(.57512 -.24289 .14515 .34173 177.2 107.07)" r="158.3"><stop style="stop-color:#fbf07b" offset="0"/><stop style="stop-color:#fff;stop-opacity:0" offset="1"/></radialGradient><radialGradient id="c" gradientUnits="userSpaceOnUse" cy="178.4" cx="188.45" gradientTransform="matrix(.54418 -.36279 .40823 .60884 132.31 88.765)" r="180.34"><stop style="stop-color:#efd747;stop-opacity:0" offset="0"/><stop style="stop-color:#c2d93c" offset="1"/></radialGradient></defs><path style="opacity:.3;fill:url(#a)" d="M408.12 170.58c0 13.78-42.54 24.96-94.96 24.96s-94.96-11.18-94.96-24.96 42.54-24.96 94.96-24.96 94.96 11.18 94.96 24.96z" transform="translate(-208.81 -54.372)"/><path style="fill-rule:evenodd;fill:#55594c" d="m209.67 116.53 8.53 2.13 2.04-12.17s-2.61-2.59-4.57 2c-.69 1.62-4.19 2.44-6 8.04z" transform="translate(-208.81 -54.372)"/><path style="fill-rule:evenodd;fill:#eeda34" d="M209.64 115.97c-.68 9.51 2.91 18.84 8.18 27.1 10.28 16.09 29.98 26.89 36.91 29.77 8.21 3.43 22.84 11.14 55.79 11.84 27.75.59 45.81-8.66 56.72-14.36 10.52-5.5 27.03-19.27 32.63-28.76 8.17-13.84 5.56-25.91 5.56-25.91-.17-5.51-4.26-13.43-5.31-20.451-1.06-7.023 2.29-14.976 2.29-14.976s.71-.515-1.18-.893c-2.1-.418-7.54.349-8.72-.075-3.03-1.093-8.59-5.929-8.59-5.929l-1.46 2.024c1.46 3.158-1.19 10.595-2.8 13.609-2.8 6.927-10.58 16.251-19.87 24.211s-18.91 14.34-18.91 14.34c-16.87 9.63-54.1 7.7-72.83-2.07-14.65-7.64-26.89-14.8-33.33-14.74l-5.07-1.07s-9.35-4.94-11.69-3.77c-2.41 8.35-3.98 9.84-8.32 10.11z" transform="translate(-208.81 -54.372)"/><path style="fill-rule:evenodd;fill:#d5ae6c" d="M383.68 74.728s.48-3.208.3-3.995l1.94.545.37-2.24-.97-1.937.66-.06 1.28.605-.06-4.782.6-.605 3.1-.182.97 1.574h1.46l1.64-1.392 2.24-2.724.31-2.543.6-.181v-1.695l1.22.121 7.46 4.963.07 2.906-.73.424s-1.95 8.474-1.7 13.075c.24 4.6-7.71 6.053-7.71 6.053l-13.05-7.93z" transform="translate(-208.81 -54.372)"/><path style="opacity:.6;fill-rule:evenodd;fill:url(#b)" d="m400.5 56.004-1.29.678-.92 2.289-2.65 3.205s.09 3.202-.65 3.476c-.73.275-3.13-.288-3.13-.288l-1.55-2.56s-2.39-.73-2.3 1.472c.09 2.197.09 3.3-.92 3.849 0 0 1.02 2.103-.17 3.019-1.19.915-1.84 1.732-1.84 1.732l-.22 2.561 7.7 4.68 1.24-.475 1.74-4.477s-2.57-3.111-3.03-4.849c-1.05-1.587.19-2.194 2.48-1.187l3.86-3.205c1.93-.916-2.29-1.459-2.29-1.459.73-2.562 1-3.12 1-3.12l1.21 2.103c1.1.274 2.19-2.645 2.19-2.645 1.1-1.465-.1-4.562-.1-4.562l-.36-.237z" transform="translate(-208.81 -54.372)"/><path style="opacity:.6;fill-rule:evenodd;fill:url(#c)" d="M209.64 115.97c-.68 9.51 2.91 18.84 8.18 27.1 10.28 16.09 29.98 26.89 36.91 29.77 8.21 3.43 22.84 11.14 55.79 11.84 27.75.59 45.81-8.66 56.72-14.36 10.52-5.5 27.03-19.27 32.63-28.76 8.17-13.84 5.56-25.91 5.56-25.91-.17-5.51-4.26-13.43-5.31-20.451-1.06-7.023 2.29-14.976 2.29-14.976s-3.35 2.183-5.24 1.805c-2.1-.418-3.48-2.349-4.66-2.773-3.03-1.093-8.08-4.411-8.08-4.411l-1.97.506c1.46 3.158-.45 11.55-1.29 14.893-1.85 10.127-36 35.407-36 35.407-19.61 12.7-58.39 9.56-77.12-.21-14.65-7.64-26.89-14.8-33.33-14.74l-5.07-1.07s-9.35-4.94-11.69-3.77c-1.21 4.18-2.2 6.64-3.44 8.08-1.23 1.45-2.71 1.89-4.88 2.03z" transform="translate(-208.81 -54.372)"/><path style="opacity:.2;fill-rule:evenodd;fill:url(#d)" d="M403.53 58.022c-1.31 4.635-2.35 11.543-3.93 14.413-2.13 3.863-8.91 6.766-8.91 6.766 1.55 1.738 1.74 8.254.39 10.615-2.26 3.942 7.08 1.321 9.27 6.647-.08-.428-.18-.849-.24-1.272-1.01-6.689 1.96-14.136 2.25-14.837 1.23-.912 2.16-2.132 2.07-3.747-.24-4.601 1.7-13.074 1.7-13.074l.73-.424-.05-2.917-3.28-2.17z" transform="translate(-208.81 -54.372)"/><path style="fill-rule:evenodd;fill:url(#e)" d="M383.01 74.323c-.99 26.387-29.58 45.337-42.86 52.947-20.92 10.43-54.32 7.21-72.4-2.13-14.69-7.58-26.88-14.81-33.32-14.75l-5.08-1.05s-3.06-1.63-6.12-2.8l.28.65-4.08.2 7.3 10.91c3.22 5.35 24.25 14.76 24.25 14.76 6.44 3 19.95 10.06 19.95 10.06 7.51 2.99 22.95 4.49 22.95 4.49 15.16 3.87 25.79-.56 40.99-3.63 0 0 12.98-5.66 18.23-8.76 5.79-3.43 19.58-16.07 22.75-20.98 1.93-3 5.78-7.05 5.78-7.05-2.36 1.71-4.5 2.56-4.5 2.56 7.55-9.09 11.81-20.428 14.59-29.524-2.96-.983-6.78-3.931-8.71-5.903z" transform="translate(-208.81 -54.372)"/><path style="opacity:.2;fill-rule:evenodd;fill:url(#f)" d="M217.08 108.76c-1.81 4.96-3.28 7.05-7.45 7.2-.67 9.52 2.92 18.84 8.2 27.1.81 1.27 1.67 2.51 2.58 3.71-1.39-3.57-1.89-4.69-1.54-6.56.42-2.35 5.59-1.28-.63-7.05-6.23-5.78-4.95-13.06-3.23-14.77 1.71-1.71 5.15 3.42 4.72-1.07-.28-2.97-1.35-6.39-2.65-8.56z" transform="translate(-208.81 -54.372)"/><path style="opacity:.2;fill-rule:evenodd;fill:url(#g)" d="M350.42 178.06c-35.85 9.74-64.23 1.55-65.9 2.17-1.2.45-6.91.05-10.3-.22 8.71 2.34 20.36 4.34 36.31 4.68 16.58.35 29.69-2.81 39.89-6.63z" transform="translate(-208.81 -54.372)"/></svg>