<svg xmlns="http://www.w3.org/2000/svg" viewBox="0 0 200.777 173.88" overflow="visible"><g stroke-miterlimit="10" stroke="#000" stroke-width=".036" clip-rule="evenodd" fill-rule="evenodd"><path d="M180.56 58.338c1.189-6.228.865-12.24-1.367-18.468-2.232-6.336-4.789-12.816-11.701-18.612-7.02-5.832-19.295-12.168-29.879-15.696-10.691-3.6-21.492-5.22-33.805-5.544C91.362-.414 76.063-.09 63.751 3.366 51.33 6.75 38.514 13.734 30.306 20.43c-8.244 6.48-13.068 14.544-15.3 22.248-2.124 7.668-1.512 15.624 2.232 23.868-.324 3.096-1.764 4.716-4.464 5.148-2.808.288-9.828-3.6-11.736-2.916-1.98.684-.864 5.364.432 6.948 1.296 1.476 3.636 2.052 7.164 1.872-2.592 1.44-3.888 2.736-4.032 4.032-.108 1.296.936 2.448 3.276 3.6L.894 94.446l.504 5.04c2.16-.288 4.464-.252 6.912-.036 2.412.216 4.896.72 7.596 1.512-5.184 1.872-8.028 4.104-8.388 6.84-.324 2.664 1.512 5.796 6.048 9.396-.54 6.372.18 12.023 2.16 17.1 2.016 4.968 2.556 7.92 9.684 13.14 7.164 5.257 19.728 13.572 32.436 18.145 12.492 4.428 26.388 9 42.516 8.28 16.2-.937 40.86-5.868 53.569-13.393 12.42-7.668 19.295-18.107 20.771-31.896l6.264-5.364c5.076-5.976 7.596-10.44 7.561-13.536-.109-3.204-2.773-4.68-7.992-4.968.215-2.017.432-4.393.359-7.272-.072-2.916-.287-6.191-.648-9.972 2.088.144 4.105.54 6.445 1.476 2.23.864 4.643 4.536 7.092 3.78 2.375-.972 6.84-4.428 6.984-8.82-.072-4.464-3.492-12.888-6.805-17.208-3.44-4.314-7.76-7.05-13.38-8.346z"/><path d="M177.72 61.254c-1.908 7.992-7.344 14.544-16.309 19.512-9.252 4.968-23.65 8.424-38.051 9.937-14.617 1.224-33.012.216-47.844-1.656-14.796-1.872-30.168-4.284-40.14-9.324-10.008-5.22-17.172-13.14-19.26-21.276-2.124-8.388.324-19.224 6.768-27.648 6.408-8.424 20.124-17.388 31.428-22.176 11.302-4.789 24.55-5.473 35.566-6.229 10.728-.828 19.115-.288 29.053 1.476 10.043 1.62 20.988 3.996 30.203 8.784 9 4.788 18.648 11.772 23.545 19.98 4.86 8.172 6.73 20.448 5.04 28.62z" fill="#C6902C"/><path d="M180.85 60.282c3.455.828 6.551 2.772 9.287 5.832 2.771 3.024 6.049 8.208 7.057 12.24.863 3.96-.541 9.756-1.729 11.412-1.332 1.477-3.023-.756-6.047-1.836-3.313-1.116-8.102-3.384-12.422-4.464-4.211-1.08-8.566-1.908-12.924-2.196 3.35-.864 6.301-2.916 9.145-6.444 2.74-3.564 5.33-8.316 7.63-14.544z" fill="#00C200"/><path d="M152.99 103.7c-3.059.899-5.615 3.456-7.668 7.668-2.088 4.14-3.672 9.936-4.752 17.388-.539-1.404-2.807-3.313-7.344-5.724-4.5-2.557-10.943-5.437-19.477-9.036.9-1.404 1.908-2.34 3.564-2.521 1.549-.252 3.996 1.44 5.688 1.044 1.514-.54 2.736-1.836 3.674-4.031 1.367 1.655 2.951 2.376 4.463 2.159 1.477-.288 3.348-3.563 4.789-3.6 1.439-.072 2.627.756 3.707 2.88.756-3.708 2.377-6.012 4.572-7.056 2.2-1.08 5.08-.76 8.79.83z" fill="#F2C802"/><path d="M112.92 114.71a307.66 307.66 0 0 1 9 3.888c2.662 1.08 4.391 1.729 7.523 3.456 3.096 1.8 6.803 4.068 11.123 7.092l-.576 3.78a96.385 96.385 0 0 0-13.355-8.712c-4.715-2.556-9.539-4.716-14.615-6.479.31-1.01.6-2.02.92-3.03zM2.435 94.158l6.48-6.948c2.664 2.016 4.86 3.096 6.732 3.384 1.8.145 2.916-2.16 4.32-2.052 1.332 0 2.376 2.771 4.104 2.483 1.62-.432 4.752-4.5 5.94-4.284 1.116.288 1.404 2.125.864 5.796.648 1.439 1.152 2.483 1.368 3.527.216.937.18 1.692-.108 2.269-3.816-1.368-7.92-2.304-12.888-2.952-5.004-.612-10.296-.936-16.452-.828l-.36-.395zM33.179 99.918c-2.7-1.152-6.48-2.16-11.736-2.88-5.328-.828-11.628-1.368-19.44-1.765l.648 2.341c2.808.288 5.796.647 9.108 1.224 3.384.504 6.804 1.152 10.656 2.088 3.708.828 7.344 1.908 11.304 3.24-.18-1.41-.361-2.81-.54-4.252z" fill="#F2C802"/><path d="M33.322 82.314c-.504 2.808-.54 5.868-.108 9.18.36 3.24 1.26 7.235 2.556 10.476 1.332 3.168 1.44 6.265 5.328 8.316 3.816 1.908 11.772 6.443 17.46 3.204 5.688-3.349 10.836-10.908 16.128-22.969-5.94-.323-12.06-1.151-19.044-2.483-6.983-1.404-14.291-3.312-22.32-5.724z" fill="#00C200"/><path d="M18.526 101.86c2.988.359 5.94.899 8.712 1.619a57.067 57.067 0 0 1 7.92 2.7c.468 2.269 1.728 4.248 3.924 5.94 2.16 1.584 5.94 3.06 9 3.888 2.916.685 5.616 1.584 8.784.468 3.132-1.188 6.408-3.708 9.972-7.56 2.34.252 4.716.252 7.272 0a54.952 54.952 0 0 0 7.776-1.548c-1.008 2.628-.684 4.319 1.26 5.076 1.908.72 5.148.504 10.008-.648l-1.188 8.352c-5.472 2.916-11.7 4.717-19.08 5.545-7.488.827-15.732 2.951-24.876-.864-9.143-4.08-18.827-11.6-29.484-22.98zM101.29 117.2c2.268 2.808 5.76 5.111 10.764 7.056 4.932 1.944 11.195 3.276 18.936 4.392-4.57-2.159-8.676-4.104-12.311-5.976-3.709-1.872-6.949-3.528-9.721-5.112l-4.283-6.336c-1.12 1.98-2.24 3.96-3.39 5.98z" fill="red"/><path d="M112.13 107.77a2355.175 2355.175 0 0 0-4.176-15.552c-7.668.216-13.932.324-19.188.18-5.328-.18-9.252-.468-12.204-1.008-3.564 5.796-5.652 10.08-6.408 12.708-.792 2.664.252 2.7 1.764 3.168 1.44.324 4.356-.216 6.948-.792 2.556-.576 5.148-1.512 8.172-2.664-2.376 2.305-3.564 4.032-3.708 5.185-.108 1.044.936 1.476 2.988 1.691 1.872.181 4.68.108 8.424-.359-.54 3.348-.576 5.508.036 6.912.576 1.331 1.944 2.663 3.42.936 1.332-1.98 2.988-5.76 4.825-12.024 3.383 4.572 5.723 6.948 7.307 7.272 1.55.2 2.05-1.63 1.8-5.66z" fill="#80FF00"/><path d="M144.24 125.12a71.218 71.218 0 0 0 8.172-3.061c3.133-1.439 6.373-3.132 10.262-5.22-1.369-5.472-2.484-8.676-3.35-9.756-.936-1.08-1.26 3.6-2.088 3.348-.898-.396-1.908-2.231-3.168-5.508-3.023 1.98-5.291 4.716-6.947 8.064-1.61 3.39-2.62 7.39-2.87 12.14zM178.55 90.414l-5.615 5.472a33.478 33.478 0 0 0 1.115 7.74c.648 2.052 1.332 3.672 2.447 4.716l2.846-3.312c-.27-4.87-.52-9.73-.81-14.626zM174.12 109.75c-.504-1.692-1.477-2.412-2.916-2.448-1.549-.144-5.184 1.26-5.904 2.412-.756 1.152-.359 2.7 1.332 4.644 1.943-.936 3.385-1.655 4.717-2.447 1.29-.79 2.09-1.51 2.77-2.15z" fill="red"/><path d="M16.187 102.51c-4.536 1.044-6.552 3.313-5.652 6.804.864 3.492 6.84 9.792 10.548 13.896 3.42 3.924 3.6 5.508 10.8 10.008 7.308 4.608 18.324 12.853 32.472 16.956 14.076 3.924 35.676 7.884 51.047 6.444 15.156-1.729 28.008-8.748 39.529-15.624 11.482-6.805 20.771-15.013 28.691-24.912 1.943-3.924 2.484-6.48 1.477-7.524-1.117-1.151-3.529-1.008-7.525 1.116-4.104 2.196-10.691 8.316-16.307 11.7-5.652 3.204-11.305 5.724-17.244 7.56l-2.629 6.769-8.207-4.645c-3.277.685-7.596.216-12.961-1.403-5.508-1.729-11.879-4.572-19.512-8.677a91.137 91.137 0 0 1-21.384 6.588c-7.812 1.332-16.488 2.845-24.228 1.477-7.776-1.62-14.796-5.796-21.348-10.296-6.593-4.49-12.318-9.85-17.573-16.26z" fill="#FFE42E"/><path d="M64.03 134.48c.576.612 21.096 5.652 32.256 6.229 11.053.396 29.305-2.376 33.516-3.313 3.924-.899-2.951-1.979-9.107-1.979-6.191-.108-17.785 1.8-27.289 1.691-9.534-.18-29.875-3.28-29.371-2.63z"/><path d="M16.834 120.19c3.708 5.725 8.748 10.908 15.264 16.093 6.372 5.147 14.04 10.439 23.436 14.22 9.432 3.636 20.844 6.012 32.58 7.416 11.664 1.26 25.741 2.195 36.792.324 10.98-2.124 20.557-7.272 28.584-11.952 7.957-4.608 14.076-9.792 18.793-15.552.396 4.607-1.188 9.107-4.896 13.932-3.889 4.788-9.828 10.439-17.244 14.472-7.271 3.96-15.588 7.057-26.496 9-11.195 1.729-26.279 3.636-39.563 1.836-13.392-1.943-29.196-7.668-39.636-12.744-10.476-5.184-17.82-11.376-22.464-17.604-4.602-6.31-6.367-12.62-5.143-19.45z" fill="#C6902C"/><path d="M110.54 93.51c1.225 5.112 2.52 8.964 4.031 11.7 1.514 2.664 3.098 3.78 4.752 4.464 1.549.54 3.098.072 4.248-.576 1.045-.647 1.477-1.764 1.693-3.348 1.764 1.332 3.131 1.872 4.5 1.764 1.26-.216 1.584-2.124 3.203-2.52 1.584-.396 3.527-.252 6.121.288.504-3.349 2.016-5.437 4.535-6.265 2.557-.828 8.027.072 10.297 1.296 2.051 1.116 1.402 4.752 2.375 5.473.863.468 1.873-3.313 3.168-1.765 1.297 1.584 3.564 10.08 4.428 11.341.721 1.044-.359-2.809-.18-4.608.072-1.872-.145-5.148.721-6.084.828-.9 2.771.36 4.176.576 1.367.107 2.592.18 3.816.216-1.369-2.592-2.018-4.932-1.945-7.021.072-2.123.756-3.672 2.197-5.615 1.295-2.053 3.455-4.248 6.084-6.588l-16.309-3.132c-3.6 1.98-8.279 3.636-14.473 5.4-6.371 1.62-16.127 3.708-22.463 4.608-6.32.876-11.22.912-15 .408zM19.462 68.202c.324 2.124-.396 3.672-1.764 4.5-1.512.72-4.32.684-6.912.432-2.7-.288-7.776-2.376-8.712-1.98-.9.324 1.476 2.952 3.24 3.996 1.656.864 3.672 1.404 6.444 1.476-2.052 2.34-3.096 4.284-2.988 5.976.072 1.584 1.656 3.384 3.24 3.996 1.404.504 3.672-.684 5.4-.504 1.548.18 2.232 2.088 4.536 1.404 2.376-.936 5.4-2.952 9.504-6.444-1.512-.648-3.132-2.016-5.148-4.104-2.015-2.232-4.247-5.004-6.84-8.748z" fill="#80FF00"/><path d="M45.022 87.533c-.144-.287-1.728-.54-1.836-.467-.144.107.288.828.72 1.044.253 0 1.224-.467 1.116-.577zM45.599 91.17c-.144-.288-1.728-.54-1.836-.468-.108.071.216.899.684 1.08.216 0 1.296-.432 1.152-.612zM45.599 98.334c-.144-.288-1.728-.54-1.836-.468-.108.107.216.828.684 1.044.216 0 1.296-.469 1.152-.576zM45.238 94.77c-.144-.288-1.728-.54-1.836-.468s.216.9.684 1.08c.216 0 1.296-.432 1.152-.612zM46.606 102.47c-.144-.288-1.728-.54-1.836-.468s.216.9.684 1.08c.216.01 1.296-.43 1.152-.61zM47.218 106.51c-.144-.288-1.728-.54-1.836-.468-.144.107.288.828.72 1.044.252 0 1.225-.47 1.116-.57zM51.683 107.59c.144-.288 1.62-.432 1.908-.288.18.144-.612.792-.828.972-.396-.04-1.224-.54-1.08-.68zM53.123 103.27c.108-.288 1.656-.432 1.872-.288.144.108-.54.864-.792 1.009-.396 0-1.224-.62-1.08-.72zM54.347 99.342c.108-.288 1.656-.432 1.872-.288.144.145-.54.792-.792.972-.397-.04-1.224-.544-1.08-.688zM56.002 95.886c.108-.288 1.656-.432 1.872-.288.144.108-.54.864-.792 1.008-.395-.001-1.224-.612-1.08-.72zM57.046 92.142c.108-.288 1.656-.432 1.872-.288.144.145-.54.792-.792.973-.396-.037-1.224-.541-1.08-.685zM177.32 78.066c.182-.108.576-1.62.648-1.764-.107-.252-1.08.216-1.115.576-.18.216.25 1.26.46 1.188zM181.89 80.118c.18-.072.576-1.692.648-1.8-.107-.252-1.08.216-1.115.576-.17.288.26 1.296.47 1.224zM186.36 82.35c.18-.108.576-1.62.648-1.764-.109-.252-1.08.216-1.117.576-.18.216.25 1.26.47 1.188zM191.79 83.898c.18-.108.576-1.62.648-1.764-.107-.252-1.08.216-1.117.576-.17.216.26 1.26.47 1.188zM189.89 77.202c.252-.108.611-1.62.684-1.764-.143-.252-1.043.216-1.15.576-.18.216.25 1.26.47 1.188zM186.5 72.918c.18-.072.574-1.692.646-1.8-.107-.252-1.08.216-1.115.576-.18.288.25 1.296.46 1.224zM181.36 69.462c.252-.108.611-1.62.684-1.764-.145-.288-1.045.216-1.152.54-.18.288.25 1.296.47 1.224zM157.2 88.218c.145-.144 3.455.828 5.221 2.916 1.619 2.16 4.5 8.136 4.895 9.468.252 1.009-1.619-.828-2.555-2.447-1.008-1.584-1.908-5.005-3.133-6.66-1.34-1.799-4.61-3.167-4.43-3.275zM125.84 94.662c-.396-.252-.072 2.808-.973 4.176s-4.5 3.672-4.428 3.996c-.037.216 3.168-2.232 4.32-2.484 1.008-.468.863.145 1.908.469.971.359 4.104 1.871 4.139 1.764-.072-.18-3.275-1.656-4.068-2.88-.86-1.33-.61-5.002-.9-5.038zM95.134 95.021c-.324 1.477-.648 2.809-.972 4.177-.324 1.332.792 2.628-.432 4.031-1.26 1.44-6.984 4.248-6.876 4.393.144.107 5.616-3.349 7.164-2.988 1.512.396 1.584 5.472 1.908 5.364.324-.145-.972-3.061 1.116-4.86 2.124-1.8 4.716-2.016 4.716-2.016-2.125.072-3.78-.504-4.824-1.872-1.118-1.322-1.766-3.446-1.802-6.219zM50.207 48.078c-.648.108-1.512.216-2.16.864-.828.54-2.196 1.656-2.304 2.52-.108.828.864 2.232 1.656 2.412.648-.036 1.656-.828 2.448-1.8.612-1.08 1.656-3.096 1.764-3.816.035-.72-.901-.36-1.404-.18z"/><path d="M49.811 48.762c-.432-.036-1.008.18-1.584.648-.684.468-1.908 1.368-2.016 2.16-.144.648.648 1.728 1.26 1.836.54-.072 1.404-.9 2.052-1.656.54-.864 1.224-2.376 1.368-2.88-.073-.54-.577-.252-1.08-.108z" fill="#FFE42E"/><path d="M80.807 58.842c.108.468.36 1.44 1.044 2.088.648.684 1.728 1.98 2.7 2.088.828 0 2.088-1.26 2.268-1.836.036-.828-1.08-1.584-1.98-2.268-1.188-.72-3.204-1.44-3.96-1.476-.685-.036-.289.756-.072 1.404z"/><path d="M81.526 59.202c0 .432.252.9.756 1.548.54.54 1.548 1.656 2.34 1.8.648.036 1.584-.9 1.692-1.404-.072-.612-1.044-1.44-1.8-1.908-.9-.612-2.484-1.08-2.952-1.116-.468 0-.251.54-.036 1.08z" fill="#FFE42E"/><path d="M107.52 36.63c-.648.036-1.512.216-2.16.828-.828.612-2.197 1.548-2.305 2.52-.107.864.865 2.196 1.656 2.448.611-.036 1.691-.828 2.412-1.8.684-1.044 1.656-3.168 1.801-3.852.03-.648-.91-.324-1.41-.144z"/><path d="M107.12 37.278c-.504-.036-1.045.18-1.619.648-.576.468-1.98 1.368-1.98 2.16-.145.648.648 1.728 1.26 1.836.539-.072 1.404-.9 2.053-1.656.539-.864 1.26-2.376 1.33-2.88-.03-.54-.61-.252-1.04-.108z" fill="#FFD028"/><path d="M97.079 23.274c-.396.468-.72 1.188-.828 2.16-.144.936-.324 2.664.288 3.384.504.576 2.304.828 2.916.468.504-.432.468-1.944.324-3.024-.252-1.224-1.26-3.456-1.62-3.924-.505-.504-.865.324-1.08.936z"/><path d="M97.294 23.994c-.216.288-.648.828-.612 1.62-.144.756-.108 2.34.252 2.952.396.504 1.728.612 2.196.324.36-.396.324-1.728.18-2.628-.216-1.008-.936-2.592-1.188-2.952-.395-.432-.576.216-.828.684z" fill="#FFE42E"/><path d="M110.69 15.606c.324.288.684.504 1.367.792.611.108 1.764.504 2.34.216.504-.324.721-1.512.648-1.908-.324-.36-1.188-.684-2.016-.576-.9.036-2.449.288-2.844.612-.51.216.21.504.5.864z"/><path d="M111.19 15.534c.215.18.467.432 1.043.612.504.144 1.549.252 2.016.18.361-.18.613-1.26.469-1.44-.287-.288-1.152-.54-1.764-.468-.721-.036-1.801.252-2.125.468-.33.144.06.36.35.648z" fill="#FFE42E"/><path d="M104.82 9.774c-.287-.432-.467-.9-.971-1.26-.613-.396-1.549-1.188-2.125-1.008-.72.072-1.332 1.008-1.296 1.548.072.468.828.936 1.692 1.26.721.288 2.375.432 2.879.432.4-.252-.03-.576-.17-.972z"/><path d="M104.31 9.666a3.23 3.23 0 0 0-.756-.972c-.504-.432-1.332-.864-1.799-.864-.504 0-1.152.756-.972 1.152.108.288.792.792 1.477 1.08.646.18 1.691.288 2.16.324.33-.144-.03-.432-.11-.72z" fill="#FFE42E"/><path d="M89.698 11.25c.072-.432.36-.9.324-1.548-.144-.72-.144-1.944-.576-2.304-.432-.396-1.8-.396-2.016 0-.324.288-.288 1.26.108 2.088.252.72 1.08 2.16 1.512 2.52.361.252.396-.468.648-.756z"/><path d="M89.446 10.746c.072-.288.252-.72.252-1.152-.072-.684-.18-1.62-.468-1.98-.36-.324-1.368-.36-1.512.036-.36.216-.036 1.188.144 1.8.072.54.9 1.62 1.116 1.872.181.072.289-.252.468-.576z" fill="#FFE42E"/><path d="M73.606 8.838c-.072.468-.108.864.18 1.584.18.576.648 1.692 1.26 1.98.504.144 1.692-.252 1.908-.648.036-.504-.216-1.332-.756-1.944-.54-.72-1.836-1.728-2.232-1.908-.467-.144-.36.396-.36.936z"/><path d="M73.966 9.198c-.072.252-.072.648.144 1.188.108.504.648 1.404 1.08 1.728.36.072 1.26-.144 1.44-.504 0-.432-.288-1.188-.72-1.692-.396-.54-1.404-1.332-1.656-1.404-.288-.18-.432.324-.288.684z" fill="#FFE42E"/><path d="M67.559 15.786a3.239 3.239 0 0 0-1.08-1.152c-.684-.432-1.584-1.008-2.16-.9-.684.144-1.26 1.008-1.188 1.62 0 .432.9.864 1.728 1.152.684.216 2.448.252 2.916.252.395-.252-.001-.576-.216-.972z"/><path d="M67.019 15.714c-.18-.36-.396-.612-.792-.9-.54-.396-1.44-.792-1.872-.756-.468.072-1.044.756-.9 1.224.144.36.864.684 1.584.972.648.144 1.692.252 2.16.18.252-.108-.036-.54-.18-.72z" fill="#FFD028"/><path d="M126.35 7.938c-.361-.252-.9-.612-1.477-.648-.756-.216-1.908-.252-2.34.036-.504.216-.793 1.62-.432 1.98.252.252 1.223.504 2.088.36.791-.144 2.303-.792 2.736-.972.32-.324-.3-.576-.58-.756z"/><path d="M125.81 8.046c-.287-.288-.648-.396-1.08-.468-.576-.18-1.619-.216-2.016.036s-.684 1.08-.324 1.512c.252.216 1.08.288 1.801.216.611-.216 1.764-.504 2.088-.72.21-.252-.22-.396-.47-.576z" fill="#FFE42E"/><path d="M133.47 13.806c.145-.36.541-.9.613-1.476.107-.756.107-1.908-.145-2.34-.396-.468-1.656-.684-1.98-.36-.396.252-.539 1.224-.287 2.088.07.828.756 2.196 1.08 2.7.22.36.51-.36.72-.612z"/><path d="M133.33 13.302c.145-.216.396-.72.469-1.116.037-.54.037-1.728-.145-2.016-.359-.468-1.223-.504-1.475-.252-.361.252-.289 1.08-.182 1.8.072.648.469 1.656.793 2.052.15.216.33-.216.54-.468z" fill="#FFE42E"/><path d="M142.29 13.878c0 .468-.107.864.252 1.584.252.612.684 1.584 1.297 1.944.504.18 1.691-.324 1.906-.684.145-.504-.359-1.332-.826-1.944-.576-.612-1.945-1.764-2.305-1.8-.47-.144-.4.432-.33.9z"/><path d="M142.69 14.238c-.072.252-.109.648.18 1.188.072.504.721 1.44 1.115 1.692.289.108 1.369-.216 1.441-.54.107-.396-.434-1.224-.793-1.656-.469-.576-1.404-1.26-1.691-1.368-.32-.18-.36.324-.25.684z" fill="#FFE42E"/><path d="M152.99 23.598c-.324-.288-.791-.684-1.404-.756-.756-.216-1.871-.432-2.375-.072-.541.252-.863 1.548-.541 1.944.289.288 1.117.576 2.053.468.863-.072 2.268-.612 2.809-.792.27-.216-.23-.612-.55-.792z"/><path d="M152.45 23.67c-.324-.252-.541-.432-1.045-.54-.576-.216-1.619-.288-2.016-.072-.432.144-.756 1.188-.432 1.476.324.216.973.432 1.801.36.756-.216 1.654-.324 2.123-.612.15-.216-.14-.468-.42-.612z" fill="#FFE42E"/><path d="M130.99 44.406c-.432-.576-1.115-1.008-1.908-1.296-1.043-.396-2.592-.828-3.383-.468-.756.396-1.439 1.944-1.08 2.7.287.648 1.619.936 2.879 1.008 1.225-.036 3.457-.36 4.178-.684.5-.396-.33-.864-.69-1.26z"/><path d="M130.23 44.442a2.662 2.662 0 0 0-1.439-.936c-.828-.396-2.305-.684-2.916-.432-.721.288-1.08 1.44-.791 2.052.215.396 1.512.792 2.52.792.9-.108 2.592-.288 3.131-.54.37-.288-.17-.648-.5-.936z" fill="#FFE42E"/><path d="M153.1 37.206c-.576.108-1.477.216-2.125.864-.828.54-2.195 1.656-2.305 2.52-.07.828.793 2.232 1.621 2.412.648-.036 1.656-.828 2.447-1.8.613-1.044 1.656-3.168 1.764-3.852.03-.648-.91-.324-1.41-.144z"/><path d="M152.7 37.854c-.432-.036-1.008.18-1.584.648-.684.468-1.908 1.368-2.016 2.16-.145.648.646 1.728 1.26 1.836.539-.036 1.404-.9 2.051-1.62.541-.864 1.225-2.376 1.369-2.88-.07-.504-.58-.324-1.08-.144z" fill="#FFE42E"/><path d="M146.51 53.55c.143.468.574 1.296 1.295 1.908.648.54 2.053 1.764 2.953 1.728.826-.18 2.016-1.44 2.016-2.124-.072-.828-1.297-1.44-2.305-1.98-1.225-.54-3.42-1.08-4.104-.936-.68 0-.18.792.15 1.404z"/><path d="M147.23 53.802c.145.36.289.936.973 1.44.576.54 1.799 1.404 2.557 1.476.574-.072 1.584-1.116 1.512-1.62-.109-.612-1.297-1.296-2.053-1.656-.9-.468-2.627-.756-3.096-.72-.54-.036-.18.648.11 1.08z" fill="#FFE42E"/><path d="M145.14 71.622c.107-.612.324-1.368.252-2.268-.215-.936-.432-2.844-1.08-3.24-.719-.504-2.52-.36-2.916.288-.467.504-.145 1.872.396 2.988.539 1.008 1.836 3.024 2.52 3.42.47.324.65-.72.83-1.188z"/><path d="M144.74 70.974c.037-.432.324-1.008.182-1.728-.109-.792-.469-2.412-.938-2.772-.576-.504-1.908-.252-2.195.216-.252.468-.107 1.656.432 2.592.396.828 1.404 2.232 1.908 2.556.37.288.44-.504.62-.864z" fill="#FFE42E"/><path d="M119.72 62.658c-.467-.468-1.043-1.044-1.871-1.296-.938-.324-2.664-.972-3.385-.54-.828.396-1.477 1.944-1.115 2.7.215.648 1.619.9 2.844 1.044 1.225-.072 3.455-.288 4.176-.648.59-.396-.28-.864-.64-1.26z"/><path d="M118.97 62.694c-.324-.36-.756-.828-1.439-.972-.828-.396-2.305-.648-2.916-.468-.684.288-1.152 1.44-.828 2.052.215.432 1.512.756 2.52.828.9 0 2.592-.288 3.133-.468.47-.252-.28-.72-.46-.972z" fill="#FFE42E"/><path d="M74.218 69.606c-.648.108-1.512.216-2.16.864-.828.54-2.196 1.656-2.304 2.52-.108.828.864 2.232 1.656 2.412.648-.036 1.656-.828 2.448-1.8.612-1.08 1.656-3.096 1.764-3.816.037-.72-.899-.36-1.404-.18z"/><path d="M73.822 70.29c-.432-.036-1.008.18-1.584.648-.684.468-1.908 1.368-2.016 2.16-.144.648.648 1.728 1.26 1.836.54-.072 1.404-.9 2.052-1.656.54-.864 1.224-2.376 1.368-2.88-.071-.54-.575-.252-1.08-.108z" fill="#FFE42E"/><path d="M55.21 76.41a5.098 5.098 0 0 0-1.656-1.62c-.936-.612-2.376-1.296-3.204-1.08-.864.216-1.764 1.728-1.584 2.448.036.648 1.512 1.152 2.628 1.512 1.08.216 3.564.288 4.248.072.541-.288-.107-.864-.432-1.332z"/><path d="M54.455 76.302c-.252-.468-.612-.864-1.224-1.188-.756-.396-2.16-1.224-2.808-.972-.72.144-1.332 1.296-1.152 1.908.108.432 1.44.972 2.34 1.224.936.18 2.592.252 3.168.072.468-.252-.145-.648-.324-1.044z" fill="#FFE42E"/><path d="M30.227 67.05c.504.252 1.296.504 2.232.612.936-.036 2.7-.036 3.348-.576.54-.684.648-2.448.18-2.916-.504-.54-1.98-.432-3.024-.072-1.224.324-3.312 1.404-3.744 1.98-.505.468.431.612 1.008.972z"/><path d="M30.946 66.762c.36.072.864.504 1.656.468.72-.036 2.34-.072 2.916-.504.432-.54.468-1.836.108-2.232-.468-.396-1.764-.252-2.628.036-1.008.216-2.448 1.08-2.808 1.476-.432.288.325.54.756.756z" fill="#FFE42E"/><path d="M25.619 51.642c-.216-.648-.54-1.368-1.116-2.016-.792-.72-1.908-1.98-2.772-1.98-.864-.036-2.196 1.152-2.196 1.908-.036.648.972 1.512 2.052 2.196 1.008.504 3.276 1.26 4.032 1.296.504-.18.179-.792 0-1.404z"/><path d="M24.898 51.354c-.18-.54-.36-1.008-.828-1.548-.612-.54-1.728-1.764-2.376-1.728-.72-.072-1.728.792-1.656 1.476-.036.54 1.008 1.296 1.872 1.872.756.504 2.448.828 2.988.972.36 0 .181-.72 0-1.044z" fill="#FFE42E"/><path d="M24.718 33.678c-.324.576-.504 1.332-.396 2.268.144.864.18 2.7.936 3.276.612.432 2.412.396 2.916-.108.288-.612.252-1.944-.252-3.024-.432-1.116-1.908-3.276-2.34-3.564-.576-.504-.72.576-.864 1.152z"/><path d="M25.079 34.326c-.216.396-.36.972-.288 1.728.036.756.252 2.304.792 2.844.54.36 1.728.324 2.196-.108.216-.504.072-1.836-.288-2.628-.396-.972-1.404-2.376-1.764-2.664-.469-.396-.504.432-.648.828z" fill="#FFE42E"/><path d="M38.471 28.602c-.144.54-.252 1.404.072 2.304.288.864.756 2.52 1.548 3.024.72.36 2.412-.144 2.844-.684.36-.684-.288-1.98-.828-2.916-.648-1.08-2.484-2.736-2.988-3.024-.684-.288-.577.612-.648 1.296z"/><path d="M38.975 29.178c-.18.396-.216.972.036 1.728.144.792.72 2.124 1.332 2.628.576.288 1.8-.072 2.16-.54.252-.54-.396-1.8-.828-2.52-.54-.864-1.836-1.98-2.232-2.232-.505-.252-.433.432-.468.936z" fill="#FFD028"/><path d="M63.238 25.686c-.468 0-1.008.144-1.476.576-.612.324-1.512 1.08-1.584 1.728s.576 1.44 1.116 1.692c.504 0 1.116-.648 1.692-1.26.432-.792 1.116-2.088 1.224-2.628.037-.432-.611-.324-.972-.108z"/><path d="M62.951 26.154c-.324-.036-.684.108-1.08.432-.432.252-1.404.972-1.404 1.476-.18.396.432 1.188.864 1.26.468 0 .9-.648 1.44-1.116.36-.576.864-1.656.936-1.98-.073-.432-.469-.18-.756-.072z" fill="#FFE42E"/><path d="M54.13 31.554c-.468 0-1.008.144-1.476.576-.612.324-1.512 1.08-1.584 1.728s.576 1.44 1.116 1.692c.504 0 1.116-.648 1.692-1.26.432-.792 1.116-2.088 1.224-2.628.037-.432-.612-.324-.972-.108z"/><path d="M53.842 31.986a1.98 1.98 0 0 0-1.08.468c-.432.36-1.404.9-1.404 1.476-.18.396.432 1.188.864 1.26.468 0 .9-.648 1.44-1.116.36-.576.864-1.656.936-1.98-.072-.396-.468-.252-.756-.108z" fill="#FFE42E"/><path d="M68.747 36.594c-.072.36-.252.936 0 1.584.108.648.54 1.728 1.008 2.124.432.144 1.692 0 1.98-.432.18-.468-.18-1.368-.54-2.016-.576-.72-1.512-1.98-1.98-2.124-.397-.216-.505.396-.468.864z"/><path d="M69.07 36.99c-.072.252-.252.648 0 1.188.108.54.396 1.476.864 1.836.36.144 1.224.036 1.476-.324-.036-.432-.072-1.188-.504-1.728-.468-.612-1.152-1.476-1.476-1.62-.287-.252-.36.288-.36.648z" fill="#FFE42E"/><path d="M88.258 46.098c-.468-.036-1.008.216-1.476.612-.612.432-1.512 1.008-1.584 1.728-.072.54.576 1.512 1.116 1.656.504.072 1.116-.612 1.692-1.224.432-.756 1.116-2.16 1.224-2.664.037-.432-.611-.324-.972-.108z"/><path d="M88.006 46.566c-.396-.036-.72.108-1.116.432-.468.324-1.296.972-1.368 1.512-.18.396.432 1.188.864 1.26.396.036.864-.72 1.404-1.152.396-.576.756-1.656.936-1.98-.107-.432-.395-.18-.72-.072z" fill="#FFE42E"/><path d="M87.61 30.186c-.108-.468.036-.936-.252-1.548-.288-.72-.864-1.692-1.332-1.944-.648-.324-1.692.288-1.872.72-.216.396.252 1.26.828 1.908.468.54 1.836 1.656 2.304 1.8.36.036.288-.468.324-.936z"/><path d="M87.214 29.826c-.036-.36.036-.756-.18-1.188-.288-.504-.72-1.512-1.152-1.656-.432-.216-1.404.108-1.404.54-.144.324.252 1.152.756 1.656.324.468 1.404 1.188 1.728 1.332.217.072.252-.432.252-.684z" fill="#FFD028"/><path d="M77.243 23.706c.108-.432.432-.9.432-1.548-.072-.792-.036-1.836-.432-2.304-.468-.432-1.692-.468-2.016-.108-.396.288-.252 1.26 0 2.088.18.792 1.008 2.124 1.368 2.592.252.324.468-.432.648-.72z"/><path d="M77.063 23.202c.144-.36.252-.612.324-1.152-.036-.576-.108-1.656-.36-1.98-.36-.432-1.332-.324-1.548-.072-.396.216-.108 1.188.036 1.8.18.576.72 1.692 1.044 1.944.144.108.359-.216.504-.54z" fill="#FFD028"/><path d="M51.827 19.314c-.18-.504-.252-.936-.612-1.44-.504-.612-1.188-1.512-1.764-1.584-.612-.108-1.62.648-1.656 1.152-.144.504.612 1.116 1.296 1.692.648.36 2.088 1.116 2.664 1.152.395-.072.143-.576.072-.972z"/><path d="M51.358 19.062c-.18-.324-.144-.684-.432-1.08-.36-.468-1.152-1.296-1.548-1.368-.54-.108-1.224.468-1.224.9-.108.324.648.972 1.152 1.404.54.432 1.584.72 2.016.864.252-.108.073-.396.036-.72z" fill="#FFD028"/><path d="M125.02 21.906c-.037.36.072.864.467 1.512.289.54 1.008 1.44 1.621 1.728.576-.036 1.584-.468 1.764-1.008.107-.54-.541-1.26-1.117-1.764-.719-.648-2.088-1.296-2.555-1.404-.51-.072-.29.432-.18.936z"/><path d="M125.45 22.23c.035.288-.037.612.359 1.116.324.432.793 1.296 1.404 1.476.396.108 1.152-.468 1.297-.756.035-.54-.576-1.044-1.01-1.512-.504-.468-1.654-1.044-1.906-1.044-.39-.108-.21.36-.14.72z" fill="#FFE42E"/><path d="m19.57 111.55-1.116 1.908 2.988 1.116-1.872-3.03zM33.862 120.98l-1.116 1.872 2.988 1.116-1.872-2.99zM27.851 121.73l-1.116 1.871 2.988 1.116-1.872-2.99zM56.074 140.92l-1.152 1.872 3.024 1.116-1.872-2.99zM100.82 126.23l-1.116 1.871 3.023 1.152-1.91-3.02zM136.57 141.68l-1.115 1.872 2.988 1.116-1.88-2.99zM153.89 130.37l-1.115 1.872 2.988 1.151-1.88-3.02zM171.96 119.07l-1.152 1.907 3.023 1.116-1.87-3.03zM85.415 143.91l-4.896.396v3.384l2.628-2.268 2.268 1.872v-3.38zM89.159 128.1l-4.896.396v3.384l2.664-2.268 2.232 1.872v-3.38zM37.354 127.31l-3.06 3.816 2.448 2.304.18-3.456 2.916-.359-2.484-2.3zM123.14 144.23l-3.061 3.815 2.449 2.34.18-3.492 2.916-.323-2.49-2.34zM166.05 124.65l-3.096 3.853 2.484 2.304.145-3.456 2.916-.359-2.45-2.33zM51.179 131.49l-3.024.756.756 1.116 2.628.756-.36-2.64zM51.539 137.9l-2.988.757.756 1.115 2.628.756-.396-2.64zM69.25 136.78l-3.024.72.756 1.152 2.628.756-.36-2.63zM74.11 146.54l-2.988.756.756 1.152 2.628.72-.396-2.63zM86.53 148.81l-2.988.756.756 1.116 2.628.756-.396-2.64zM95.566 141.64l-3.024.756.756 1.152 2.628.756-.36-2.67zM100.46 148.81l-3.024.756.756 1.116 2.628.756-.36-2.64zM109.5 142.79l-3.023.756.756 1.116 2.629.756-.37-2.64zM115.12 148.05l-2.988.756.756 1.116 2.629.756-.4-2.64zM150.11 137.54l-2.988.72.756 1.152 2.629.756-.4-2.63zM180.96 111.58l-2.988.72.756 1.152 2.629.756-.4-2.63zM137.33 136.02l-3.023.757.756 1.115 2.629.757-.37-2.64zM60.935 133l-2.988.756.756 1.116 2.628.756-.396-2.64zM14.674 105.93l-3.024.756.756 1.116 2.628.756-.36-2.64z"/></g></svg>