<svg xmlns="http://www.w3.org/2000/svg" xmlns:xlink="http://www.w3.org/1999/xlink" width="117.144" height="98.878" viewBox="0 0 109.822 92.698"><defs><linearGradient id="j"><stop style="stop-color:#220d00;stop-opacity:1" offset="0"/><stop offset=".554" style="stop-color:#441900;stop-opacity:1"/><stop style="stop-color:#7c3000;stop-opacity:1" offset="1"/></linearGradient><linearGradient id="i"><stop offset="0" style="stop-color:#381500;stop-opacity:1"/><stop style="stop-color:#662600;stop-opacity:1" offset=".554"/><stop offset="1" style="stop-color:#923800;stop-opacity:1"/></linearGradient><linearGradient id="h"><stop style="stop-color:#381500;stop-opacity:1" offset="0"/><stop offset=".641" style="stop-color:#662600;stop-opacity:1"/><stop style="stop-color:#923800;stop-opacity:1" offset="1"/></linearGradient><linearGradient id="f"><stop offset="0" style="stop-color:#381500;stop-opacity:1"/><stop style="stop-color:#662600;stop-opacity:1" offset=".144"/><stop offset="1" style="stop-color:#923800;stop-opacity:1"/></linearGradient><linearGradient id="e"><stop style="stop-color:#381500;stop-opacity:1" offset="0"/><stop offset=".906" style="stop-color:#662600;stop-opacity:1"/><stop style="stop-color:#923800;stop-opacity:1" offset="1"/></linearGradient><linearGradient id="d"><stop offset="0" style="stop-color:#381500;stop-opacity:1"/><stop style="stop-color:#662600;stop-opacity:1" offset=".604"/><stop offset="1" style="stop-color:#923800;stop-opacity:1"/></linearGradient><linearGradient xlink:href="#d" id="u" x1="119.535" y1="1001.618" x2="117.621" y2="1001.884" gradientUnits="userSpaceOnUse" gradientTransform="translate(-19.233 -3.8)"/><linearGradient xlink:href="#e" id="w" x1="119.879" y1="1029.313" x2="121.201" y2="1031.257" gradientUnits="userSpaceOnUse" gradientTransform="translate(-50.406 -31.13)"/><linearGradient xlink:href="#f" id="s" x1="133.457" y1="1030.873" x2="137.346" y2="1043.424" gradientUnits="userSpaceOnUse" gradientTransform="translate(-40.6 -35.088)"/><linearGradient xlink:href="#h" id="q" x1="17.869" y1="1005.779" x2="15.411" y2="1006.992" gradientUnits="userSpaceOnUse"/><linearGradient xlink:href="#i" id="p" x1="54.593" y1="1016.65" x2="52.598" y2="1016.801" gradientUnits="userSpaceOnUse"/><pattern xlink:href="#a" id="t" patternTransform="matrix(.68851 .0837 -.08534 .70199 -.5 962)"/><pattern xlink:href="#a" id="r" patternTransform="matrix(.7028 0 0 .78237 .282 946.227)"/><pattern xlink:href="#a" id="x" patternTransform="matrix(.9 0 0 .8 1.25 947.25)"/><pattern id="a" patternTransform="scale(10)" height="10" width="10" patternUnits="userSpaceOnUse"><circle r=".45" cy=".81" cx="2.567" style="fill:#000;stroke:none"/><circle r=".45" cy="2.33" cx="3.048" style="fill:#000;stroke:none"/><circle r=".45" cy="2.415" cx="4.418" style="fill:#000;stroke:none"/><circle r=".45" cy="3.029" cx="1.844" style="fill:#000;stroke:none"/><circle r=".45" cy="1.363" cx="6.08" style="fill:#000;stroke:none"/><circle r=".45" cy="4.413" cx="5.819" style="fill:#000;stroke:none"/><circle r=".45" cy="4.048" cx="4.305" style="fill:#000;stroke:none"/><circle r=".45" cy="3.045" cx="5.541" style="fill:#000;stroke:none"/><circle r=".45" cy="5.527" cx="4.785" style="fill:#000;stroke:none"/><circle r=".45" cy="5.184" cx="2.667" style="fill:#000;stroke:none"/><circle r=".45" cy="1.448" cx="7.965" style="fill:#000;stroke:none"/><circle r=".45" cy="5.049" cx="7.047" style="fill:#000;stroke:none"/><circle r=".45" cy=".895" cx="4.34" style="fill:#000;stroke:none"/><circle r=".45" cy=".34" cx="7.125" style="fill:#000;stroke:none"/><circle r=".45" cy="1.049" cx="9.553" style="fill:#000;stroke:none"/><circle r=".45" cy="2.689" cx="7.006" style="fill:#000;stroke:none"/><circle r=".45" cy="2.689" cx="8.909" style="fill:#000;stroke:none"/><circle r=".45" cy="4.407" cx="9.315" style="fill:#000;stroke:none"/><circle r=".45" cy="3.87" cx="7.82" style="fill:#000;stroke:none"/><circle r=".45" cy="5.948" cx="8.27" style="fill:#000;stroke:none"/><circle r=".45" cy="7.428" cx="7.973" style="fill:#000;stroke:none"/><circle r=".45" cy="8.072" cx="9.342" style="fill:#000;stroke:none"/><circle r=".45" cy="9.315" cx="8.206" style="fill:#000;stroke:none"/><circle r=".45" cy="9.475" cx="9.682" style="fill:#000;stroke:none"/><circle r=".45" cy="6.186" cx="9.688" style="fill:#000;stroke:none"/><circle r=".45" cy="6.296" cx="3.379" style="fill:#000;stroke:none"/><circle r=".45" cy="8.204" cx="2.871" style="fill:#000;stroke:none"/><circle r=".45" cy="8.719" cx="4.59" style="fill:#000;stroke:none"/><circle r=".45" cy="9.671" cx="3.181" style="fill:#000;stroke:none"/><circle r=".45" cy="7.315" cx="5.734" style="fill:#000;stroke:none"/><circle r=".45" cy="6.513" cx="6.707" style="fill:#000;stroke:none"/><circle r=".45" cy="9.67" cx="5.73" style="fill:#000;stroke:none"/><circle r=".45" cy="8.373" cx="6.535" style="fill:#000;stroke:none"/><circle r=".45" cy="7.154" cx="4.37" style="fill:#000;stroke:none"/><circle r=".45" cy="7.25" cx=".622" style="fill:#000;stroke:none"/><circle r=".45" cy="5.679" cx=".831" style="fill:#000;stroke:none"/><circle r=".45" cy="8.519" cx="1.257" style="fill:#000;stroke:none"/><circle r=".45" cy="6.877" cx="1.989" style="fill:#000;stroke:none"/><circle r=".45" cy="3.181" cx=".374" style="fill:#000;stroke:none"/><circle r=".45" cy="1.664" cx="1.166" style="fill:#000;stroke:none"/><circle r=".45" cy=".093" cx="1.151" style="fill:#000;stroke:none"/><circle r=".45" cy="10.093" cx="1.151" style="fill:#000;stroke:none"/><circle r=".45" cy="4.451" cx="1.302" style="fill:#000;stroke:none"/><circle r=".45" cy="3.763" cx="3.047" style="fill:#000;stroke:none"/></pattern><pattern xlink:href="#b" id="l" patternTransform="matrix(.65562 -.36423 1.33552 2.40393 1.25 947.25)"/><pattern xlink:href="#b" id="n" patternTransform="matrix(.38632 .2114 -.52125 .95254 4 948)"/><pattern id="b" patternTransform="scale(10)" height="1" width="2" patternUnits="userSpaceOnUse"><path style="fill:#000;stroke:none" d="M0-.5h1v2H0z"/></pattern><pattern xlink:href="#c" id="v" patternTransform="matrix(.7028 0 0 .78237 45.102 921.59)"/><pattern id="c" patternTransform="scale(10)" height="10" width="10" patternUnits="userSpaceOnUse"><circle r=".45" cy=".81" cx="2.567" style="fill:#000;stroke:none"/><circle r=".45" cy="2.33" cx="3.048" style="fill:#000;stroke:none"/><circle r=".45" cy="2.415" cx="4.418" style="fill:#000;stroke:none"/><circle r=".45" cy="3.029" cx="1.844" style="fill:#000;stroke:none"/><circle r=".45" cy="1.363" cx="6.08" style="fill:#000;stroke:none"/><circle r=".45" cy="4.413" cx="5.819" style="fill:#000;stroke:none"/><circle r=".45" cy="4.048" cx="4.305" style="fill:#000;stroke:none"/><circle r=".45" cy="3.045" cx="5.541" style="fill:#000;stroke:none"/><circle r=".45" cy="5.527" cx="4.785" style="fill:#000;stroke:none"/><circle r=".45" cy="5.184" cx="2.667" style="fill:#000;stroke:none"/><circle r=".45" cy="1.448" cx="7.965" style="fill:#000;stroke:none"/><circle r=".45" cy="5.049" cx="7.047" style="fill:#000;stroke:none"/><circle r=".45" cy=".895" cx="4.34" style="fill:#000;stroke:none"/><circle r=".45" cy=".34" cx="7.125" style="fill:#000;stroke:none"/><circle r=".45" cy="1.049" cx="9.553" style="fill:#000;stroke:none"/><circle r=".45" cy="2.689" cx="7.006" style="fill:#000;stroke:none"/><circle r=".45" cy="2.689" cx="8.909" style="fill:#000;stroke:none"/><circle r=".45" cy="4.407" cx="9.315" style="fill:#000;stroke:none"/><circle r=".45" cy="3.87" cx="7.82" style="fill:#000;stroke:none"/><circle r=".45" cy="5.948" cx="8.27" style="fill:#000;stroke:none"/><circle r=".45" cy="7.428" cx="7.973" style="fill:#000;stroke:none"/><circle r=".45" cy="8.072" cx="9.342" style="fill:#000;stroke:none"/><circle r=".45" cy="9.315" cx="8.206" style="fill:#000;stroke:none"/><circle r=".45" cy="9.475" cx="9.682" style="fill:#000;stroke:none"/><circle r=".45" cy="6.186" cx="9.688" style="fill:#000;stroke:none"/><circle r=".45" cy="6.296" cx="3.379" style="fill:#000;stroke:none"/><circle r=".45" cy="8.204" cx="2.871" style="fill:#000;stroke:none"/><circle r=".45" cy="8.719" cx="4.59" style="fill:#000;stroke:none"/><circle r=".45" cy="9.671" cx="3.181" style="fill:#000;stroke:none"/><circle r=".45" cy="7.315" cx="5.734" style="fill:#000;stroke:none"/><circle r=".45" cy="6.513" cx="6.707" style="fill:#000;stroke:none"/><circle r=".45" cy="9.67" cx="5.73" style="fill:#000;stroke:none"/><circle r=".45" cy="8.373" cx="6.535" style="fill:#000;stroke:none"/><circle r=".45" cy="7.154" cx="4.37" style="fill:#000;stroke:none"/><circle r=".45" cy="7.25" cx=".622" style="fill:#000;stroke:none"/><circle r=".45" cy="5.679" cx=".831" style="fill:#000;stroke:none"/><circle r=".45" cy="8.519" cx="1.257" style="fill:#000;stroke:none"/><circle r=".45" cy="6.877" cx="1.989" style="fill:#000;stroke:none"/><circle r=".45" cy="3.181" cx=".374" style="fill:#000;stroke:none"/><circle r=".45" cy="1.664" cx="1.166" style="fill:#000;stroke:none"/><circle r=".45" cy=".093" cx="1.151" style="fill:#000;stroke:none"/><circle r=".45" cy="10.093" cx="1.151" style="fill:#000;stroke:none"/><circle r=".45" cy="4.451" cx="1.302" style="fill:#000;stroke:none"/><circle r=".45" cy="3.763" cx="3.047" style="fill:#000;stroke:none"/></pattern><pattern xlink:href="#g" id="o" patternTransform="matrix(.7028 0 0 .78237 .282 946.227)"/><pattern id="g" patternTransform="scale(10)" height="10" width="10" patternUnits="userSpaceOnUse"><circle r=".45" cy=".81" cx="2.567" style="fill:#000;stroke:none"/><circle r=".45" cy="2.33" cx="3.048" style="fill:#000;stroke:none"/><circle r=".45" cy="2.415" cx="4.418" style="fill:#000;stroke:none"/><circle r=".45" cy="3.029" cx="1.844" style="fill:#000;stroke:none"/><circle r=".45" cy="1.363" cx="6.08" style="fill:#000;stroke:none"/><circle r=".45" cy="4.413" cx="5.819" style="fill:#000;stroke:none"/><circle r=".45" cy="4.048" cx="4.305" style="fill:#000;stroke:none"/><circle r=".45" cy="3.045" cx="5.541" style="fill:#000;stroke:none"/><circle r=".45" cy="5.527" cx="4.785" style="fill:#000;stroke:none"/><circle r=".45" cy="5.184" cx="2.667" style="fill:#000;stroke:none"/><circle r=".45" cy="1.448" cx="7.965" style="fill:#000;stroke:none"/><circle r=".45" cy="5.049" cx="7.047" style="fill:#000;stroke:none"/><circle r=".45" cy=".895" cx="4.34" style="fill:#000;stroke:none"/><circle r=".45" cy=".34" cx="7.125" style="fill:#000;stroke:none"/><circle r=".45" cy="1.049" cx="9.553" style="fill:#000;stroke:none"/><circle r=".45" cy="2.689" cx="7.006" style="fill:#000;stroke:none"/><circle r=".45" cy="2.689" cx="8.909" style="fill:#000;stroke:none"/><circle r=".45" cy="4.407" cx="9.315" style="fill:#000;stroke:none"/><circle r=".45" cy="3.87" cx="7.82" style="fill:#000;stroke:none"/><circle r=".45" cy="5.948" cx="8.27" style="fill:#000;stroke:none"/><circle r=".45" cy="7.428" cx="7.973" style="fill:#000;stroke:none"/><circle r=".45" cy="8.072" cx="9.342" style="fill:#000;stroke:none"/><circle r=".45" cy="9.315" cx="8.206" style="fill:#000;stroke:none"/><circle r=".45" cy="9.475" cx="9.682" style="fill:#000;stroke:none"/><circle r=".45" cy="6.186" cx="9.688" style="fill:#000;stroke:none"/><circle r=".45" cy="6.296" cx="3.379" style="fill:#000;stroke:none"/><circle r=".45" cy="8.204" cx="2.871" style="fill:#000;stroke:none"/><circle r=".45" cy="8.719" cx="4.59" style="fill:#000;stroke:none"/><circle r=".45" cy="9.671" cx="3.181" style="fill:#000;stroke:none"/><circle r=".45" cy="7.315" cx="5.734" style="fill:#000;stroke:none"/><circle r=".45" cy="6.513" cx="6.707" style="fill:#000;stroke:none"/><circle r=".45" cy="9.67" cx="5.73" style="fill:#000;stroke:none"/><circle r=".45" cy="8.373" cx="6.535" style="fill:#000;stroke:none"/><circle r=".45" cy="7.154" cx="4.37" style="fill:#000;stroke:none"/><circle r=".45" cy="7.25" cx=".622" style="fill:#000;stroke:none"/><circle r=".45" cy="5.679" cx=".831" style="fill:#000;stroke:none"/><circle r=".45" cy="8.519" cx="1.257" style="fill:#000;stroke:none"/><circle r=".45" cy="6.877" cx="1.989" style="fill:#000;stroke:none"/><circle r=".45" cy="3.181" cx=".374" style="fill:#000;stroke:none"/><circle r=".45" cy="1.664" cx="1.166" style="fill:#000;stroke:none"/><circle r=".45" cy=".093" cx="1.151" style="fill:#000;stroke:none"/><circle r=".45" cy="10.093" cx="1.151" style="fill:#000;stroke:none"/><circle r=".45" cy="4.451" cx="1.302" style="fill:#000;stroke:none"/><circle r=".45" cy="3.763" cx="3.047" style="fill:#000;stroke:none"/></pattern><radialGradient xlink:href="#j" id="m" cx="83.222" cy="1033.933" fx="83.222" fy="1033.933" r="2.125" gradientTransform="matrix(-2.35284 -.16229 .2854 -4.13764 -32.897 5300.478)" gradientUnits="userSpaceOnUse"/><radialGradient xlink:href="#i" id="k" cx="77.952" cy="1030.599" fx="77.952" fy="1030.599" r="1.84" gradientTransform="matrix(-2.62721 .41571 -.69732 -4.40694 988.671 5519.306)" gradientUnits="userSpaceOnUse"/></defs><path style="fill:#a43f00;fill-opacity:1;fill-rule:evenodd;stroke:#f0f;stroke-width:.35433072;stroke-linecap:butt;stroke-linejoin:miter;stroke-miterlimit:4;stroke-dasharray:none;stroke-opacity:1" d="m8 1036.362.5-43.625-4.375-1.125c-1.038-1.735-.574-2.969.5-4l57.25-22c1.375-.639 2.75-.27 4.125 0l37.625 7.75c1.405 1.06 1.702 2.343.75 3.875l-4.75 3.25.25 41.875-3.5 2.125-4.125-1-.125-31-22.375 13.5v10.875l-3.75 1.625-3.5-1 .125-7.375-8 4.125.125 33.125-3.75 2.25-5.875-1.5.5-33.5-28-9.437-.25 31.937-3.375 1.25z" transform="translate(.923 -961.423)"/><path style="fill:url(#k);fill-opacity:1;fill-rule:evenodd;stroke:none;stroke-width:.35433072;stroke-linecap:butt;stroke-linejoin:miter;stroke-miterlimit:4;stroke-dasharray:none;stroke-opacity:1" d="m62.375 1009.862.125 7.625 3.375 1c.374-2.703.062-4.681 0-10.125z" transform="translate(.923 -961.423)"/><path style="fill:url(#l);fill-opacity:1;fill-rule:evenodd;stroke:none;stroke-width:.35433072;stroke-linecap:butt;stroke-linejoin:miter;stroke-miterlimit:4;stroke-dasharray:none;stroke-opacity:1;opacity:.332" d="m62.375 1009.862.125 7.625 3.375 1c.374-2.703.062-4.681 0-10.125z" transform="translate(.923 -961.423)"/><path style="fill:url(#m);fill-opacity:1;fill-rule:evenodd;stroke:none;stroke-width:.35433072;stroke-linecap:butt;stroke-linejoin:miter;stroke-miterlimit:4;stroke-dasharray:none;stroke-opacity:1" d="m66.125 1018.487 3.875-2-.25-10.875-4 3z" transform="translate(.923 -961.423)"/><path style="fill:url(#n);fill-opacity:1;fill-rule:evenodd;stroke:none;stroke-width:.35433072;stroke-linecap:butt;stroke-linejoin:miter;stroke-miterlimit:4;stroke-dasharray:none;stroke-opacity:1;opacity:.455" d="m66.125 1018.487 3.875-2-.25-10.875-4 3z" transform="translate(.923 -961.423)"/><g style="fill:url(#o);fill-opacity:1;stroke:none" transform="translate(.923 -961.423)"><path d="M51.545 1006.23c2.267 13.542 1.222 29.2 1.526 42.083l1.47-1.432-.166-41.269c-.943.855-2.112.668-2.83.618z" style="fill:url(#p);fill-opacity:1;fill-rule:evenodd;stroke:none;stroke-width:.35433072;stroke-linecap:butt;stroke-linejoin:miter;stroke-miterlimit:4;stroke-dasharray:none;stroke-opacity:1"/><path d="M14.27 995.373c1.66 14.3 1.214 29.211 1.525 42.083l1.407-.744-.062-31.787-1.444-.5.278-8.982c-.943.042-.987-.02-1.704-.07z" style="fill:url(#q);fill-opacity:1;fill-rule:evenodd;stroke:none;stroke-width:.35433072;stroke-linecap:butt;stroke-linejoin:miter;stroke-miterlimit:4;stroke-dasharray:none;stroke-opacity:1"/></g><g style="fill:url(#r);fill-opacity:1;stroke:none;opacity:.354" transform="translate(.923 -961.423)"><path d="M51.545 1006.23c2.267 13.542 1.222 29.2 1.526 42.083l1.47-1.432-.166-41.269c-.943.855-2.112.668-2.83.618zM14.27 995.373c1.66 14.3 1.214 29.211 1.525 42.083l1.407-.744-.062-31.787-1.444-.5.278-8.982c-.943.042-.987-.02-1.704-.07z" style="fill:url(#r);fill-opacity:1;fill-rule:evenodd;stroke:none;stroke-width:.35433072;stroke-linecap:butt;stroke-linejoin:miter;stroke-miterlimit:4;stroke-dasharray:none;stroke-opacity:1"/></g><path style="fill:url(#s);fill-opacity:1;fill-rule:evenodd;stroke:none;stroke-width:.35433066;stroke-linecap:butt;stroke-linejoin:miter;stroke-miterlimit:4;stroke-dasharray:none;stroke-opacity:1" d="M96.304 981.996c-.89 3.064-1.19 6.835-1.414 9.9-1.387 11.161-.598 21.452-.884 32.173l-1.856-.265.177-31.378 1.944-1.15-.176-8.042z" transform="translate(.923 -961.423)"/><path style="fill:url(#t);fill-opacity:1;fill-rule:evenodd;stroke:none;stroke-width:.35433066;stroke-linecap:butt;stroke-linejoin:miter;stroke-miterlimit:4;stroke-dasharray:none;stroke-opacity:1;opacity:.42" d="M96.304 981.996c-.89 3.064-1.19 6.835-1.414 9.9-1.387 11.161-.598 21.452-.884 32.173l-1.856-.265.177-31.378 1.944-1.15-.176-8.042z" transform="translate(.923 -961.423)"/><path d="M96.678 982.03c2.267 13.543.91 28.764 1.213 41.646l1.47-1.432-.166-41.269c-1.13.417-1.737.605-2.517 1.055z" style="fill:url(#u);fill-opacity:1;fill-rule:evenodd;stroke:none;stroke-width:.35433072;stroke-linecap:butt;stroke-linejoin:miter;stroke-miterlimit:4;stroke-dasharray:none;stroke-opacity:1" transform="translate(.923 -961.423)"/><path d="M96.678 982.03c2.267 13.543.91 28.764 1.213 41.646l1.47-1.432-.166-41.269c-1.13.417-1.737.605-2.517 1.055z" style="fill:url(#v);fill-opacity:1;fill-rule:evenodd;stroke:none;stroke-width:.35433072;stroke-linecap:butt;stroke-linejoin:miter;stroke-miterlimit:4;stroke-dasharray:none;stroke-opacity:1;opacity:.323" transform="translate(.923 -961.423)"/><path style="fill:url(#w);fill-opacity:1;fill-rule:evenodd;stroke:none;stroke-width:.35433072;stroke-linecap:butt;stroke-linejoin:miter;stroke-miterlimit:4;stroke-dasharray:none;stroke-opacity:1" d="m54.89 1006.93.051 4.426c8.951-5.963 21.617-15.242 39.012-25.124l-.085-2.106z" transform="translate(.923 -961.423)"/><path style="fill:url(#x);fill-opacity:1;fill-rule:evenodd;stroke:none;stroke-width:.35433072;stroke-linecap:butt;stroke-linejoin:miter;stroke-miterlimit:4;stroke-dasharray:none;stroke-opacity:1;opacity:.467" d="m54.89 1006.93.05 4.426c8.952-5.963 21.618-15.242 39.013-25.124l-.085-2.106z" transform="translate(.923 -961.423)"/><path style="color:#000;font-style:normal;font-variant:normal;font-weight:400;font-stretch:normal;font-size:medium;line-height:normal;font-family:sans-serif;text-indent:0;text-align:start;text-decoration:none;text-decoration-line:none;text-decoration-style:solid;text-decoration-color:#000;letter-spacing:normal;word-spacing:normal;text-transform:none;direction:ltr;block-progression:tb;writing-mode:lr-tb;baseline-shift:baseline;text-anchor:start;white-space:normal;clip-rule:nonzero;display:inline;overflow:visible;visibility:visible;opacity:1;isolation:auto;mix-blend-mode:normal;color-interpolation:sRGB;color-interpolation-filters:linearRGB;solid-color:#000;solid-opacity:1;fill:#000;fill-opacity:1;fill-rule:evenodd;stroke:none;stroke-width:1.77165353;stroke-linecap:round;stroke-linejoin:bevel;stroke-miterlimit:4;stroke-dasharray:none;stroke-dashoffset:0;stroke-opacity:1;marker:none;color-rendering:auto;image-rendering:auto;shape-rendering:auto;text-rendering:auto;enable-background:accumulate" d="M63.203 18.917c-1.089.083-1.45.3-2.173.562-18.923 6.857-37.323 13.906-56.946 21.275-.602.12-1.482 1.6-1.463 2.744.024 1.42.69 2.67 1.314 2.787 1.31.418 2.263.748 3.573 1.166v42.241s-.023.706.09.952c.161.356.602.633.9.738 1.455.512 2.26.73 4.05 1.395.19.046.85.323 1.318.333.485.01.857-.07 1.263-.287.9-.41 1.118-.567 2.154-1.026.4-.191.776-.521.833-.821.13-.69.223-1.003.248-2.267l-.04-28.91c8.68 3.253 17.546 6.2 26.287 9.328l-.047 32.395s-.002.898.177 1.121c.291.364.66.5 1.022.605 1.43.416 2.378.642 4.136 1.073.262.056.956.19 1.2.194.245.003.576-.127.872-.312a28.868 28.868 0 0 0 2.296-1.607c.605-.487.886-.632 1.077-1.099.113-.278.097-.526.097-1.688V68.56c2.284-1.286 4.086-2.275 6.369-3.56-.042 2.15-.018 3.808.004 5.848.005.366.084.677.276.993.157.257.478.317.814.43.646.216 1.607.542 2.257.74.412.124.825.263 1.164.21.486-.077.906-.334 1.42-.577.32-.152 1.51-.842 1.842-.993.4-.183.406-.279.563-.488.172-.228.208-.508.209-.913.002-3.393.064-6.946.064-10.104 7.37-4.151 13.843-8.623 21.214-12.774l-.032 29.665s-.053.638.221.965c.241.288 1.077.514 1.077.514l2.616.49c.013-.036.51.106.98.09.427-.015.978-.292 1.377-.502.49-.305 1.137-.666 1.585-.999.209-.155.624-.508.766-.781.184-.354.197-.514.213-.913 0-13.799.173-27.137.173-41.523 1.603-.91 2.286-1.396 3.889-2.307.578-.32.956-2.025.83-3.16-.28-2.506-2.277-2.494-3.662-2.834-12.858-2.468-25.055-4.792-36.22-6.936-.776-.168-1.556-.276-2.247-.223Zm.155.893c.486-.054 2.504.201 2.504.201l35.332 7.518s1.045.115 1.056.357c.013.308-.793.648-.793.648L53.6 54.731s-.993.642-1.65.583c-.658-.058-1.23-.327-1.23-.327S8.612 42.25 8.076 42.072c-.446-.134-1.244-.139-1.217-.468.035-.415 1.313-.659 2.474-1.057.634-.238 42.629-16.58 52.032-20.088.832-.31 1.332-.577 1.993-.65zm40.057 8.684c.496-.272.817.535.8 1.07-.012.404-.06 1.045-.723 1.47-15.204 8.756-34.558 19.518-49.491 27.804-.305.219-.919-.054-1.237-.968-.17-.488.223-1.282.521-1.654 16.216-8.87 33.572-18.654 50.13-27.722zm-4.565 6.912.063 40.721c-.616.445-1.693 1.264-1.955 1.428 0-12.985-.157-27.558-.212-40.953l2.104-1.196zm-3.164 1.8.168 40.464c-.892-.174-1.94-.302-2.776-.453V46.55l1.524-.858V37.82l1.084-.615zM55.584 67.257v-6.669c12.994-7.358 26.371-15.585 37.955-22.165v6.648C80.635 52.338 67.25 60.69 55.584 67.258ZM5.626 42.628c14.704 4.509 30.321 9.065 45.172 13.635.502.105.713 1.367.67 1.89-.06.753-.65 1.187-.976 1.11a677.91 677.91 0 0 1-5.863-1.827C30.997 52.844 17.095 48.738 5.573 44.9c-.54-.115-.646-.406-.676-1.071-.03-.665.433-1.2.73-1.202Zm3.653 5.39c1.142.364 2.686.952 3.828 1.317.01 13.736.006 28.114.063 42.061-1.233-.433-2.776-.999-4.03-1.477-.077-13.65.14-28.001.14-41.901Zm4.914 1.66c.27.033.762.33.996.36l-.062 8.545c.475.153 1.074.494 1.549.646l-.063 31.128c-1.003.603-1.872.934-2.267 1.085 0-11.916-.098-28.21-.153-41.763zm1.996 8.255.151-7.536c9.659 3.091 19.456 6.28 28.197 9.076l.076 8.537c-9.765-3.537-20.192-7.012-28.424-10.077Zm30.207 1.626c1.175.353 2.484.883 3.603 1.212l.294 41.741c-1.44-.29-2.845-.675-4.171-1.017 0-13.322.254-28.037.274-41.936zm7.274.994c0 13.28.162 27.481.162 40.397a16.953 16.953 0 0 1-2.282 1.592c-.091-13.221-.23-28.238-.283-41.662 1.364.114 2.107-.026 2.403-.327zm15.38.474v9.502c-.887.486-1.585.877-2.328 1.185-.068-2.635-.101-5.808-.154-8.839.828-.637 1.468-1.086 2.483-1.848zm-3.532 2.444.081 8.08a18.729 18.729 0 0 1-2.32-.661V64.54c.466-.232 1.37-.67 2.239-1.07z" transform="translate(.923 -15.36)"/><path style="fill:none;fill-opacity:1;fill-rule:evenodd;stroke:none;stroke-width:.35433072;stroke-linecap:butt;stroke-linejoin:miter;stroke-miterlimit:4;stroke-dasharray:none;stroke-opacity:1" d="M92.25 992.487v31.125l4.125.75-.125-42.25-2.125 1.375-.063 7.938z" transform="translate(.923 -961.423)"/></svg>